<svg width="93" height="102" viewBox="0 0 93 102" fill="none" xmlns="http://www.w3.org/2000/svg">
<g clip-path="url(#clip0_2016_498)">
<path fill-rule="evenodd" clip-rule="evenodd" d="M70.5767 1.13246C70.8314 1.74251 71.1396 1.67131 71.151 4.0658C71.165 7.08968 71.313 38.3261 71.102 41.8651C70.1801 57.3836 56.9962 62.3528 55.4124 63.129C50.1592 66.5906 49.1129 69.7894 50.2249 78.7687C51.0741 85.6278 52.953 85.2964 52.5091 86.6431C52.4837 86.7205 51.8332 87.3305 51.7702 87.3393C51.0119 87.4474 51.0128 87.2602 42.191 87.3463C42.0614 87.3481 40.7498 87.3613 40.5747 87.2663C39.6694 86.7785 40.657 85.2692 40.7507 85.1259C42.373 82.6452 42.1621 80.765 42.7268 76.9772C43.485 71.8947 43.2328 69.1266 40.3909 65.6404C36.6287 61.7779 34.2402 62.1831 30.8388 59.408C20.2667 50.7829 21.5082 40.8824 21.5091 30.4368C21.5108 2.47739 21.4355 2.41584 21.9398 1.36628C22.6989 -0.212469 23.2172 0.011698 39.5626 0.011698C68.5839 0.011698 68.6085 -0.0217063 69.4245 0.257826C69.857 0.406383 70.0977 0.589219 70.1494 0.628776C70.4217 0.83447 70.307 0.927646 70.5767 1.13246ZM46.4347 11.0488L44.2546 17.7849H37.1995L42.9071 21.9489L40.727 28.6849L46.4347 24.5218L52.1414 28.6849L49.9613 21.9489L55.6689 17.7849H48.6147L46.4347 11.0488ZM63.4498 92.6451C63.7983 93.1682 63.8044 93.1435 64.1424 93.6841C65.8216 96.3713 68.8606 94.4137 68.9578 97.2469C69.083 100.92 68.9692 101.696 66.7059 101.733C57.5618 101.879 29.6498 101.755 26.4278 101.74C25.8482 101.737 24.007 101.941 23.9247 99.8743C23.7986 96.7107 23.9632 95.8773 25.5531 95.4809C26.7535 95.1811 27.3909 95.5486 29.5701 92.4948C29.6629 92.4482 29.9124 92.0087 30.7958 91.876C31.0034 91.8443 32.4165 91.8435 32.5574 91.8435C34.8688 91.8426 60.93 91.825 61.4553 91.8558C63.1556 91.9525 63.0514 92.3955 63.4498 92.6451ZM91.86 19.8374C91.6245 20.7604 89.4978 33.9925 77.9995 45.2907C76.9409 46.3315 75.9113 47.6149 75.4473 47.6034C75.3317 47.6008 74.5761 47.5824 74.8685 46.2761C74.9184 46.0555 75.3203 45.4384 75.5226 43.6285C75.7861 41.2665 75.9735 41.2551 79.7549 36.5241C83.7885 31.4785 87.147 22.7039 87.7835 18.14C88.8508 10.4862 89.0846 9.32768 86.9168 8.92157C85.3898 8.63588 77.4435 9.13342 76.2528 8.58051C75.4368 8.20076 75.4096 5.16371 76.2282 4.78924C77.4811 4.21699 84.8348 4.57653 85.9624 4.53697C94.8018 4.22492 93.098 11.6993 91.86 19.8374ZM4.31441 11.9797C5.06212 30.4579 16.3075 39.5401 16.9983 41.8054C17.0622 42.0172 17.0097 42.026 17.4369 44.5347C17.7092 46.1363 18.344 46.6989 16.7882 47.178C16.5894 47.2387 11.8195 42.2879 10.0387 39.9286C-0.352193 26.1665 -0.895018 10.0081 0.63892 7.34898C2.54146 4.05172 4.94655 4.48599 13.2956 4.49126C15.9625 4.49302 17.0316 4.01832 17.0482 6.69762C17.0657 9.36109 15.9459 8.81346 13.2983 8.82049C11.3949 8.82576 6.47173 8.81698 6.31063 8.83632C4.1288 9.1053 4.39759 9.78215 4.31441 11.9797Z" fill="#9CA3AF"/>
</g>
<defs>
<clipPath id="clip0_2016_498">
<rect width="93" height="102" fill="white"/>
</clipPath>
</defs>
</svg>
