<?xml version="1.0" encoding="UTF-8" standalone="no"?>
<!DOCTYPE svg PUBLIC "-//W3C//DTD SVG 1.1//EN" "http://www.w3.org/Graphics/SVG/1.1/DTD/svg11.dtd">
<svg width="100%" height="100%" viewBox="0 0 303 331" version="1.1" xmlns="http://www.w3.org/2000/svg" xmlns:xlink="http://www.w3.org/1999/xlink" xml:space="preserve" xmlns:serif="http://www.serif.com/" style="fill-rule:evenodd;clip-rule:evenodd;stroke-linejoin:round;stroke-miterlimit:2;">
    <g transform="matrix(1,0,0,1,-1690.419132,-1275.990486)">
        <g transform="matrix(2.85255,0,0,2.85255,956.421579,537.536291)">
            <path d="M337.923,260.163C338.214,260.857 338.566,260.776 338.579,263.5C338.595,266.94 338.764,302.475 338.523,306.501C337.47,324.155 322.412,329.808 320.603,330.691C314.603,334.629 313.408,338.268 314.678,348.483C315.648,356.286 317.794,355.909 317.287,357.441C317.258,357.529 316.515,358.223 316.443,358.233C315.577,358.356 315.578,358.143 305.502,358.241C305.354,358.243 303.856,358.258 303.656,358.15C302.622,357.595 303.75,355.878 303.857,355.715C305.71,352.893 305.469,350.754 306.114,346.445C306.98,340.663 306.692,337.514 303.446,333.548C299.149,329.154 296.421,329.615 292.536,326.458C280.461,316.646 281.879,305.383 281.88,293.5C281.882,261.693 281.796,261.623 282.372,260.429C283.239,258.633 283.831,258.888 302.5,258.888C335.647,258.888 335.675,258.85 336.607,259.168C337.101,259.337 337.376,259.545 337.435,259.59C337.746,259.824 337.615,259.93 337.923,260.163ZM310.349,271.444L307.859,279.107L299.801,279.107L306.32,283.844L303.83,291.507L310.349,286.771L316.867,291.507L314.377,283.844L320.896,279.107L312.839,279.107L310.349,271.444ZM329.783,364.269C330.181,364.864 330.188,364.836 330.574,365.451C332.492,368.508 335.963,366.281 336.074,369.504C336.217,373.683 336.087,374.565 333.502,374.607C323.058,374.774 291.178,374.632 287.498,374.615C286.836,374.612 284.733,374.844 284.639,372.493C284.495,368.894 284.683,367.946 286.499,367.495C287.87,367.154 288.598,367.572 291.087,364.098C291.193,364.045 291.478,363.545 292.487,363.394C292.724,363.358 294.338,363.357 294.499,363.357C297.139,363.356 326.905,363.336 327.505,363.371C329.447,363.481 329.328,363.985 329.783,364.269ZM362.232,281.442C361.963,282.492 359.534,297.545 346.401,310.398C345.192,311.582 344.016,313.042 343.486,313.029C343.354,313.026 342.491,313.005 342.825,311.519C342.882,311.268 343.341,310.566 343.572,308.507C343.873,305.82 344.087,305.807 348.406,300.425C353.013,294.685 356.849,284.703 357.576,279.511C358.795,270.804 359.062,269.486 356.586,269.024C354.842,268.699 345.766,269.265 344.406,268.636C343.474,268.204 343.443,264.749 344.378,264.323C345.809,263.672 354.208,264.081 355.496,264.036C365.592,263.681 363.646,272.184 362.232,281.442ZM262.241,272.503C263.095,293.524 275.939,303.856 276.728,306.433C276.801,306.674 276.741,306.684 277.229,309.538C277.54,311.36 278.265,312 276.488,312.545C276.261,312.614 270.813,306.982 268.779,304.298C256.911,288.642 256.291,270.26 258.043,267.235C260.216,263.484 262.963,263.978 272.499,263.984C275.545,263.986 276.766,263.446 276.785,266.494C276.805,269.524 275.526,268.901 272.502,268.909C270.328,268.915 264.705,268.905 264.521,268.927C262.029,269.233 262.336,270.003 262.241,272.503Z" style="fill:rgb(48,48,48);"/>
        </g>
    </g>
</svg>
