<?xml version="1.0" encoding="UTF-8" standalone="no"?>
<!DOCTYPE svg PUBLIC "-//W3C//DTD SVG 1.1//EN" "http://www.w3.org/Graphics/SVG/1.1/DTD/svg11.dtd">
<svg width="100%" height="100%" viewBox="0 0 134 134" version="1.1" xmlns="http://www.w3.org/2000/svg" xmlns:xlink="http://www.w3.org/1999/xlink" xml:space="preserve" xmlns:serif="http://www.serif.com/" style="fill-rule:evenodd;clip-rule:evenodd;stroke-linejoin:round;stroke-miterlimit:2;">
    <g transform="matrix(1,0,0,1,-168.850624,-520.071191)">
        <g transform="matrix(1,0,0,1,105.538744,404.919775)">
            <path d="M148.427,117.765C155.405,120.151 169.134,124.227 181.921,140.126C184.959,143.905 203.272,166.675 194.312,199.455C182.51,242.631 135.544,257.795 103.615,243.252C60.341,223.542 56.945,177.847 70.077,152.29C83.333,126.489 104.207,120.322 109.455,118.372L109.918,118.241C110.027,118.096 110.133,117.947 110.374,118.096L110.394,118.109C121.997,114.888 132.275,113.643 148.427,117.765ZM130.535,225.559C131.534,224.088 131.364,223.978 131.364,208.5C131.364,189.584 131.137,188.994 132.529,188.588C135.837,187.622 147.668,190.695 148.672,185.538C150.685,175.19 149.123,174.272 148.312,173.796C145.78,172.308 132.801,174.303 131.65,172.415C131.649,172.415 130.358,160.201 132.448,156.467C136.383,149.435 149.486,155.941 149.763,150.525C150.348,139.04 149.547,138.658 148.656,138.233C147.875,137.861 132.4,136.575 126.629,139.756C114.446,146.47 116.184,157.294 116.198,167.5C116.199,168.363 116.924,173.117 114.475,173.228C108.757,173.487 103.309,171.728 103.222,176.488C103.042,186.379 103.218,186.641 103.705,187.362C105.366,189.825 115.426,187.081 116.087,189.607C116.542,191.345 115.704,223.115 116.581,224.446C117.389,225.673 124.777,226.418 130.535,225.559Z" style="fill:rgb(17,16,20);"/>
        </g>
    </g>
</svg>
