<?xml version="1.0" encoding="UTF-8" standalone="no"?>
<!DOCTYPE svg PUBLIC "-//W3C//DTD SVG 1.1//EN" "http://www.w3.org/Graphics/SVG/1.1/DTD/svg11.dtd">
<svg width="100%" height="100%" viewBox="0 0 134 134" version="1.1" xmlns="http://www.w3.org/2000/svg" xmlns:xlink="http://www.w3.org/1999/xlink" xml:space="preserve" xmlns:serif="http://www.serif.com/" style="fill-rule:evenodd;clip-rule:evenodd;stroke-linejoin:round;stroke-miterlimit:2;">
    <g transform="matrix(1,0,0,1,-545.940483,-535.806069)">
        <g transform="matrix(1,0,0,1,159.876581,420.517614)">
            <path d="M396.389,217.566C381.017,192.346 384.216,165.589 396.765,145.668C420.28,108.341 476.886,103.721 505.827,141.267C523.298,163.932 521.62,192.313 513.957,208.703C489.992,259.956 424.396,260.92 396.389,217.566ZM477.303,147.963C472.233,146.572 472.176,146.707 454.5,146.707C433.511,146.708 427.82,145.652 421.789,152.732C416.9,158.471 417.599,160.413 417.599,189.5C417.599,195.678 415.354,210.788 428.696,216.003C431.737,217.192 432.43,217.463 469.501,217.117C471.255,217.1 484.156,216.98 487.421,204.478C488.034,202.13 488.403,162.005 487.215,158.599C484.456,150.688 477.9,148.278 477.303,147.963ZM423.871,198.487C423.868,197.992 423.857,198.019 423.855,197.497C423.853,197.257 423.851,196.933 423.849,194.5C423.812,162.181 423.673,161.898 425.769,158.666C429.924,152.261 436.888,153.021 439.499,152.974C471.506,152.398 472.952,153.153 475.507,154.487C482.736,158.263 481.659,167.455 481.659,167.5C481.668,201.832 481.647,201.961 480.309,204.395C476.22,211.831 471.844,210.778 449.5,210.778C434.287,210.778 425.565,212.476 423.871,198.487ZM435.047,185.592C440.198,208.454 474.423,202.597 470.74,178.462C468.349,162.797 443.936,156.384 435.723,175.584C433.945,179.743 434.898,184.804 435.047,185.592ZM452.806,170.139C459.332,170.139 464.63,175.437 464.63,181.962C464.63,188.488 459.332,193.786 452.806,193.786C446.281,193.786 440.983,188.488 440.983,181.962C440.983,175.437 446.281,170.139 452.806,170.139ZM472.193,158.811C470.197,158.811 468.576,160.432 468.576,162.428C468.576,164.425 470.197,166.046 472.193,166.046C474.19,166.046 475.811,164.425 475.811,162.428C475.811,160.432 474.19,158.811 472.193,158.811Z" style="fill:rgb(17,16,20);"/>
        </g>
    </g>
</svg>
