<?xml version="1.0" encoding="UTF-8" standalone="no"?>
<!DOCTYPE svg PUBLIC "-//W3C//DTD SVG 1.1//EN" "http://www.w3.org/Graphics/SVG/1.1/DTD/svg11.dtd">
<svg width="100%" height="100%" viewBox="0 0 134 134" version="1.1" xmlns="http://www.w3.org/2000/svg" xmlns:xlink="http://www.w3.org/1999/xlink" xml:space="preserve" xmlns:serif="http://www.serif.com/" style="fill-rule:evenodd;clip-rule:evenodd;stroke-linejoin:round;stroke-miterlimit:2;">
    <g transform="matrix(1,0,0,1,-244.613273,-291.995025)">
        <g transform="matrix(1,0,0,1,19.987276,-203.464534)">
            <path d="M358.101,558.521C358.916,605.751 322.41,626.605 297.498,628.471C232.065,633.374 199.513,555.021 247.613,511.623C269.499,491.876 311.982,486.597 340.356,516.637C354.857,531.99 357.113,550.271 357.512,553.499C357.828,556.059 357.807,556.01 358.101,558.521ZM323.036,541.762C320.833,539.566 317.008,541.012 312.556,537.434C304.412,530.889 308.207,523.718 303.501,523.479C293.603,522.977 293.18,523.886 292.817,524.665C292.157,526.08 292.658,565.821 292.505,576.5C292.492,577.444 292.393,584.385 287.268,587.074C276.957,592.486 267.28,580.378 273.751,571.675C278.734,564.973 284.765,570.457 284.803,564.505C284.845,557.854 285.681,555.237 281.498,555.295C267.564,555.489 257.264,569.699 259.715,581.46C265.542,609.412 304.169,605.526 304.764,577.502C305.331,550.838 304.237,550.831 304.704,548.563C305.031,546.979 306.474,548.212 306.59,548.311C311.358,552.387 320.941,553.449 322.455,552.436C323.601,551.669 323.746,545.642 323.036,541.762Z" style="fill:rgb(17,16,20);"/>
        </g>
    </g>
</svg>
