<?xml version="1.0" encoding="UTF-8" standalone="no"?>
<!DOCTYPE svg PUBLIC "-//W3C//DTD SVG 1.1//EN" "http://www.w3.org/Graphics/SVG/1.1/DTD/svg11.dtd">
<svg width="100%" height="100%" viewBox="0 0 134 134" version="1.1" xmlns="http://www.w3.org/2000/svg" xmlns:xlink="http://www.w3.org/1999/xlink" xml:space="preserve" xmlns:serif="http://www.serif.com/" style="fill-rule:evenodd;clip-rule:evenodd;stroke-linejoin:round;stroke-miterlimit:2;">
    <g transform="matrix(1,0,0,1,-366.5164,-536.005015)">
        <g transform="matrix(1,0,0,1,141.823542,420.71889)">
            <path d="M330.83,128.089C331.877,128.875 337.839,133.346 342.75,139.307C344.893,141.908 357.241,156.896 358.117,178.525C359.707,217.759 328.991,246.552 296.493,248.379C234.787,251.85 204.76,183.686 239.175,140.263C262.56,110.756 304.959,108.312 330.83,128.089ZM274.775,192.735C270.131,197.87 269.954,197.672 259.82,208.774C253.507,215.69 251.399,216.266 253.562,217.283C253.625,217.312 259.933,217.131 260.487,217.115C263.067,217.041 263.295,216.309 275.84,202.812C284.069,193.959 284.804,192.865 286.34,194.632C287.392,195.843 301.189,216.016 302.421,216.627C304.411,217.613 319.463,216.9 327.496,217.157C329.379,217.218 330.242,217.22 329.671,215.427C329.563,215.088 317.236,198.234 316.147,196.744C315.033,195.221 303.666,179.679 302.438,177.54C300.953,174.955 302.244,174.762 308.179,168.217C313.57,162.273 321.493,153.887 322.661,152.651C327.07,147.985 328.149,147.92 327.142,146.872C327.015,146.74 319.005,145.869 316.82,147.841C315.433,149.093 297.648,168.339 297.458,168.434C295.932,169.196 295.549,167.863 291.133,161.762C280.804,147.488 280.872,146.882 278.489,146.738C275.845,146.577 265.537,146.904 254.509,146.61C250.446,146.502 255.007,150.583 259.196,156.692C266.911,167.943 280.009,184.887 279.896,186.542C279.822,187.613 277.413,189.871 274.775,192.735ZM307.851,198.253C314.505,207.648 315.77,208.512 314.405,209.305C314.21,209.418 307.663,209.463 306.659,209.118C305.142,208.598 291.78,188.816 281.361,174.597C280.251,173.083 267.754,156.027 267.78,155.463C267.83,154.424 269.328,154.405 269.489,154.403C276.508,154.312 276.72,154.757 278.602,157.429C286.298,168.357 300.908,188.556 302.86,191.254C303.12,191.614 307.119,197.321 307.851,198.253Z"/>
        </g>
    </g>
</svg>
