<?xml version="1.0" encoding="UTF-8" standalone="no"?>
<!DOCTYPE svg PUBLIC "-//W3C//DTD SVG 1.1//EN" "http://www.w3.org/Graphics/SVG/1.1/DTD/svg11.dtd">
<svg width="100%" height="100%" viewBox="0 0 134 134" version="1.1" xmlns="http://www.w3.org/2000/svg" xmlns:xlink="http://www.w3.org/1999/xlink" xml:space="preserve" xmlns:serif="http://www.serif.com/" style="fill-rule:evenodd;clip-rule:evenodd;stroke-linejoin:round;stroke-miterlimit:2;">
    <g transform="matrix(1,0,0,1,-451.735039,-291.912609)">
        <g transform="matrix(1,0,0,1,-95.840061,176.691968)">
            <path d="M681.13,182.498C680.283,194.172 678.649,214.943 656.561,233.573C630.793,255.307 586.942,254.474 562.213,223.72C528.384,181.651 556.381,116.229 613.496,115.23C645.723,114.667 676.955,138.402 680.654,175.483C681.006,179.003 680.959,178.979 681.13,182.498ZM575.157,167.5C575.154,201.99 574.978,202.12 576.271,204.617C579.814,211.463 584.857,210.422 604.5,210.422C645.458,210.422 645.76,210.684 648.614,208.675C654.421,204.587 653.558,202.924 653.566,178.5C653.571,163.386 654.46,158.971 648.67,155.211C645.483,153.141 645.22,153.426 613.5,153.426C583.308,153.426 583.105,153.213 580.621,154.727C574.26,158.606 575.165,163.767 575.157,167.5ZM610.693,173.129C615.334,175.476 619.887,177.728 620.689,178.125C628.951,182.212 622.942,184.512 619.413,186.324C607.908,192.228 605.017,193.948 603.798,190.42C603.659,190.019 603.386,174.096 603.966,172.73C604.541,171.378 606.275,171.455 606.502,171.465C607.562,171.512 610.372,172.963 610.693,173.129Z" style="fill:rgb(17,16,19);"/>
        </g>
    </g>
</svg>
